<svg width="512" height="512" viewBox="0 0 512 512" fill="none" xmlns="http://www.w3.org/2000/svg">
<rect width="512" height="512" rx="64" fill="#3b82f6"/>
<path d="M256 106C320 106 372 158 372 222C372 286 320 338 256 338C192 338 140 286 140 222C140 158 192 106 256 106Z" fill="white"/>
<path d="M256 162C292 162 322 192 322 228C322 264 292 294 256 294C220 294 190 264 190 228C190 192 220 162 256 162Z" fill="#3b82f6"/>
<path d="M160 374L352 374" stroke="white" stroke-width="20" stroke-linecap="round"/>
<path d="M203 406L309 406" stroke="white" stroke-width="20" stroke-linecap="round"/>
<path d="M236 438L276 438" stroke="white" stroke-width="20" stroke-linecap="round"/>
</svg>
